<?xml version="1.0" encoding="UTF-8"?>
<!DOCTYPE svg PUBLIC "-//W3C//DTD SVG 1.1//EN" "http://www.w3.org/Graphics/SVG/1.1/DTD/svg11.dtd">
<svg xmlns="http://www.w3.org/2000/svg" version="1.1" width="50px" height="50px" style="shape-rendering:geometricPrecision; text-rendering:geometricPrecision; image-rendering:optimizeQuality; fill-rule:evenodd; clip-rule:evenodd" xmlns:xlink="http://www.w3.org/1999/xlink">
<g><path style="opacity:0.626" fill="#000000" d="M 19.5,1.5 C 35.3441,0.812262 40.8441,8.1456 36,23.5C 32.9016,30.045 29.0682,36.045 24.5,41.5C 18.9435,35.4172 14.7768,28.4172 12,20.5C 9.5956,12.0052 12.0956,5.67186 19.5,1.5 Z M 20.5,4.5 C 31.4856,3.6526 35.9856,8.6526 34,19.5C 32.0908,25.663 28.9242,30.9963 24.5,35.5C 17.4867,28.6267 14.3201,20.2934 15,10.5C 16.3597,7.97739 18.193,5.97739 20.5,4.5 Z M 22.5,12.5 C 23.8333,12.5 25.1667,12.5 26.5,12.5C 26.5,13.8333 26.5,15.1667 26.5,16.5C 25.1667,16.5 23.8333,16.5 22.5,16.5C 22.5,15.1667 22.5,13.8333 22.5,12.5 Z"/></g>
<g><path style="opacity:0.699" fill="#000000" d="M 21.5,9.5 C 29.4863,8.99804 31.4863,12.1647 27.5,19C 19.424,19.8047 17.424,16.638 21.5,9.5 Z M 22.5,12.5 C 22.5,13.8333 22.5,15.1667 22.5,16.5C 23.8333,16.5 25.1667,16.5 26.5,16.5C 26.5,15.1667 26.5,13.8333 26.5,12.5C 25.1667,12.5 23.8333,12.5 22.5,12.5 Z"/></g>
<g><path style="opacity:0.815" fill="#000000" d="M 5.5,31.5 C 9.37513,31.0845 13.0418,31.5845 16.5,33C 13.7737,33.1816 11.1071,33.6816 8.5,34.5C 7.26002,38.0558 5.92669,41.5558 4.5,45C 17.8333,45.6667 31.1667,45.6667 44.5,45C 43.0733,41.5558 41.74,38.0558 40.5,34.5C 37.8929,33.6816 35.2263,33.1816 32.5,33C 35.9582,31.5845 39.6249,31.0845 43.5,31.5C 44.5621,36.6863 46.2288,41.6863 48.5,46.5C 32.5,47.8333 16.5,47.8333 0.5,46.5C 2.77124,41.6863 4.43791,36.6863 5.5,31.5 Z"/></g>
</svg>
