<?xml version="1.0" standalone="no"?>
<!DOCTYPE svg PUBLIC "-//W3C//DTD SVG 20010904//EN"
 "http://www.w3.org/TR/2001/REC-SVG-20010904/DTD/svg10.dtd">
<svg version="1.0" xmlns="http://www.w3.org/2000/svg"
 width="512.000000pt" height="512.000000pt" viewBox="0 0 512.000000 512.000000"
 preserveAspectRatio="xMidYMid meet">

<g transform="translate(0.000000,512.000000) scale(0.100000,-0.100000)"
fill="#000000" stroke="none">
<path d="M2291 5106 c-49 -18 -106 -70 -130 -119 -20 -42 -21 -58 -21 -405 l0
-362 24 -15 c27 -18 69 -7 80 20 3 9 6 81 6 161 l0 144 28 6 c125 27 214 73
292 150 74 72 130 179 155 297 l5 27 899 0 900 0 11 -55 c6 -31 29 -91 51
-134 68 -137 216 -250 365 -281 l54 -11 0 -367 0 -367 -62 -12 c-191 -36 -368
-213 -408 -408 l-11 -55 -515 0 c-501 0 -515 -1 -534 -20 -25 -25 -26 -52 -2
-73 17 -16 83 -17 743 -17 682 0 726 2 765 19 49 23 107 88 122 140 9 28 12
251 12 802 0 747 -1 765 -21 809 -27 60 -54 88 -114 116 l-50 24 -1305 -1
c-999 0 -1313 -3 -1339 -13z m319 -132 c-33 -146 -147 -271 -287 -314 -36 -11
-67 -20 -69 -20 -2 0 -4 63 -4 140 0 219 10 229 226 230 l142 0 -8 -36z m2341
19 c49 -29 59 -65 59 -217 l0 -135 -32 6 c-64 11 -162 66 -216 119 -53 53
-103 145 -117 212 l-7 32 142 0 c116 0 147 -3 171 -17z m59 -1448 c0 -213 -12
-225 -230 -225 l-140 0 6 28 c37 148 124 251 262 308 104 43 102 45 102 -111z"/>
<path d="M3488 4601 c-230 -74 -364 -320 -302 -556 43 -169 194 -305 371 -335
300 -50 572 219 526 520 -27 175 -144 313 -311 369 -79 27 -203 28 -284 2z
m267 -112 c33 -12 77 -41 110 -70 207 -190 118 -528 -158 -595 -156 -39 -317
38 -389 184 -30 60 -33 75 -33 157 0 78 4 97 28 147 44 89 127 161 217 189 52
15 168 10 225 -12z"/>
<path d="M2685 4351 c-101 -47 -150 -161 -110 -258 8 -19 15 -37 15 -39 0 -2
-483 -4 -1072 -4 -590 0 -1079 -4 -1086 -9 -7 -4 -53 -115 -103 -246 l-89
-238 0 -913 c0 -901 0 -914 20 -934 25 -25 45 -25 70 0 20 20 20 33 20 900 l0
880 350 0 c337 0 351 1 370 20 25 25 26 52 2 73 -17 15 -56 17 -355 17 -185 0
-337 4 -337 8 0 5 26 81 59 168 l59 159 406 3 406 2 0 -454 0 -455 22 -15 c33
-24 533 -24 566 0 l22 15 0 455 0 454 406 -2 406 -3 59 -155 c32 -85 58 -161
58 -167 1 -10 -73 -13 -337 -13 -316 0 -340 -1 -355 -18 -22 -25 -21 -48 3
-72 19 -19 33 -20 370 -20 l350 0 0 -880 c0 -867 0 -880 20 -900 24 -24 38
-25 68 -4 l22 15 0 918 0 918 -75 204 c-70 187 -75 203 -58 212 10 6 37 29 59
53 126 129 33 345 -148 344 -24 0 -61 -9 -83 -19z m129 -102 c39 -18 60 -71
46 -115 -15 -43 -48 -66 -97 -66 -29 0 -43 7 -65 31 -74 83 14 196 116 150z
m-1004 -724 l0 -415 -195 0 -195 0 0 415 0 415 195 0 195 0 0 -415z"/>
<path d="M4405 4351 c-148 -67 -163 -268 -27 -361 30 -21 47 -25 112 -25 67 0
82 3 117 28 46 32 79 86 89 143 18 118 -83 234 -206 234 -25 0 -63 -9 -85 -19z
m136 -101 c53 -29 61 -121 12 -160 -56 -44 -146 -13 -159 54 -6 37 14 88 43
105 23 13 79 14 104 1z"/>
<path d="M3191 3314 c-28 -36 -27 -79 4 -109 50 -51 135 -15 135 58 0 72 -95
107 -139 51z"/>
<path d="M3196 2454 c-14 -14 -16 -69 -16 -455 l0 -439 -1573 0 c-1512 0
-1575 -1 -1590 -18 -15 -17 -17 -66 -17 -504 0 -439 2 -487 16 -499 12 -10 61
-15 172 -19 l155 -5 13 -63 c33 -162 152 -314 307 -394 58 -29 182 -58 252
-58 81 0 201 31 278 72 175 93 297 299 297 503 0 264 -186 499 -441 560 -309
72 -631 -129 -693 -435 l-13 -65 -116 -3 -117 -3 0 411 0 410 1535 0 1535 0 0
-410 0 -410 -718 0 c-684 0 -720 -1 -735 -18 -22 -25 -21 -48 3 -72 20 -20 33
-20 893 -20 l872 0 12 -61 c20 -106 74 -202 161 -288 231 -230 577 -228 807 3
80 81 126 164 153 273 l17 73 141 0 c105 0 145 4 160 14 18 14 19 33 22 579 1
310 -1 573 -5 584 -5 12 -188 190 -408 397 l-400 376 -472 0 c-415 0 -473 -2
-487 -16z m884 -441 c0 -308 2 -348 17 -365 15 -17 40 -18 390 -18 l373 0 0
-165 0 -165 -112 0 c-90 0 -115 -3 -130 -17 -24 -21 -23 -48 2 -73 18 -18 33
-20 130 -20 l110 0 0 -280 0 -280 -108 0 -108 0 -13 63 c-7 34 -29 96 -48 137
-47 98 -158 211 -254 258 -269 130 -587 44 -744 -203 -37 -57 -85 -187 -85
-229 l0 -26 -105 0 -105 0 0 865 0 865 395 0 395 0 0 -347z m415 -12 c143
-134 264 -248 270 -253 5 -4 -122 -8 -283 -8 l-292 0 0 272 0 271 22 -19 c12
-10 140 -129 283 -263z m-3412 -990 c116 -45 223 -152 268 -269 33 -85 37
-211 11 -299 -73 -239 -318 -380 -555 -318 -247 64 -398 304 -346 547 35 163
171 309 329 353 78 21 218 15 293 -14z m3119 9 c199 -61 329 -234 329 -440 0
-133 -44 -242 -134 -332 -270 -269 -725 -120 -789 258 -31 188 69 388 241 478
37 19 86 40 107 45 69 16 178 12 246 -9z"/>
<path d="M688 2409 c-32 -18 -41 -48 -23 -75 l15 -24 240 0 240 0 16 25 c20
30 10 63 -23 76 -33 12 -443 11 -465 -2z"/>
<path d="M665 1996 c-18 -27 -7 -69 20 -80 9 -3 155 -6 324 -6 286 0 309 1
324 18 20 22 22 63 5 80 -9 9 -97 12 -335 12 l-323 0 -15 -24z"/>
</g>
</svg>
