<?xml version="1.0" encoding="UTF-8"?>
<!DOCTYPE svg PUBLIC "-//W3C//DTD SVG 1.1//EN" "http://www.w3.org/Graphics/SVG/1.1/DTD/svg11.dtd">
<svg xmlns="http://www.w3.org/2000/svg" version="1.1" width="64px" height="64px" style="shape-rendering:geometricPrecision; text-rendering:geometricPrecision; image-rendering:optimizeQuality; fill-rule:evenodd; clip-rule:evenodd" xmlns:xlink="http://www.w3.org/1999/xlink">
<g><path style="opacity:0.823" fill="#000000" d="M 35.5,0.5 C 42.1667,0.5 48.8333,0.5 55.5,0.5C 55.6657,4.84611 55.499,9.17944 55,13.5C 53.0551,14.8633 50.8884,15.6966 48.5,16C 49.448,16.4828 50.448,16.6495 51.5,16.5C 51.5,20.5 51.5,24.5 51.5,28.5C 38.1667,28.5 24.8333,28.5 11.5,28.5C 11.5,21.8333 11.5,15.1667 11.5,8.5C 21.0834,8.18158 30.5834,8.51491 40,9.5C 40.5,9 41,8.5 41.5,8C 37.4592,7.82654 33.4592,7.32654 29.5,6.5C 31.215,4.11825 33.215,2.11825 35.5,0.5 Z M 17.5,15.5 C 17.1667,16.5 16.5,17.1667 15.5,17.5C 15.5,16.1667 16.1667,15.5 17.5,15.5 Z M 34.5,20.5 C 35.5,20.5 36.5,20.5 37.5,20.5C 37.1667,21.5 36.5,22.1667 35.5,22.5C 35.1667,21.8333 34.8333,21.1667 34.5,20.5 Z"/></g>
<g><path style="opacity:0.827" fill="#000000" d="M 56.5,0.5 C 58.5,0.5 60.5,0.5 62.5,0.5C 62.5,4.5 62.5,8.5 62.5,12.5C 60.5,12.5 58.5,12.5 56.5,12.5C 56.5,8.5 56.5,4.5 56.5,0.5 Z"/></g>
<g><path style="opacity:0.85" fill="#000000" d="M 16.5,32.5 C 19.5,32.5 22.5,32.5 25.5,32.5C 25.3379,34.5273 25.5045,36.5273 26,38.5C 26.7504,37.8742 27.5838,37.3742 28.5,37C 26.8934,35.951 26.2267,34.451 26.5,32.5C 28.5,32.5 30.5,32.5 32.5,32.5C 32.7733,34.451 32.1066,35.951 30.5,37C 31.4162,37.3742 32.2496,37.8742 33,38.5C 33.4955,36.5273 33.6621,34.5273 33.5,32.5C 36.5184,32.3354 39.5184,32.502 42.5,33C 43.147,38.7801 43.8136,44.6134 44.5,50.5C 46.4086,49.6518 48.4086,49.3184 50.5,49.5C 50.7394,51.4672 50.4061,53.3005 49.5,55C 40.5953,60.6378 30.9286,62.9712 20.5,62C 15.9769,60.2025 11.3102,59.0359 6.5,58.5C 6.17443,54.1161 6.50776,49.7828 7.5,45.5C 10.0205,44.2147 12.6872,43.5481 15.5,43.5C 15.244,39.7307 15.5773,36.0641 16.5,32.5 Z M 34.5,49.5 C 35.2485,50.531 35.9152,51.6976 36.5,53C 32.2891,54.5339 27.9558,54.8673 23.5,54C 26.8333,53.6667 30.1667,53.3333 33.5,53C 34.3366,51.9887 34.67,50.8221 34.5,49.5 Z"/></g>
<g><path style="opacity:0.772" fill="#000000" d="M 0.5,42.5 C 2.16667,42.5 3.83333,42.5 5.5,42.5C 5.5,48.8333 5.5,55.1667 5.5,61.5C 3.83333,61.5 2.16667,61.5 0.5,61.5C 0.5,55.1667 0.5,48.8333 0.5,42.5 Z"/></g>
</svg>
